<?xml version="1.0" encoding="utf-8"?>
<!-- Generator: Adobe Illustrator 19.1.0, SVG Export Plug-In . SVG Version: 6.00 Build 0)  -->
<svg version="1.1" id="Layer_1" xmlns="http://www.w3.org/2000/svg" xmlns:xlink="http://www.w3.org/1999/xlink" x="0px" y="0px"
	 viewBox="0 0 311.4552 68.82451" style="enable-background:new 0 0 311.4552 68.82451;" xml:space="preserve">
<style type="text/css">
	.st0{fill:#EE574C;}
	.st1{fill:#2F3135;}
</style>
<polygon class="st0" points="66.44061,54.55325 66.44061,66.43951 2.38351,66.43951 2.38351,2.38285 66.44061,2.38285 
	66.44061,14.36389 68.82446,14.36389 68.82446,0 0,0 0,68.82451 68.82446,68.82451 68.82446,54.55325 "/>
<polygon class="st1" points="51.67811,24.50802 54.07143,24.50802 54.07143,42.51165 61.97823,42.51165 61.65805,44.52574 
	51.67811,44.52574 "/>
<path class="st1" d="M77.91183,24.50802l6.62441,20.01772h-2.71321l-1.89715-6.15693h-7.47012l-1.92587,6.15693h-2.42204
	l6.68213-20.01772H77.91183 M73.12724,36.41385h6.18597c0,0-1.57562-4.98965-2.10049-6.71151l-0.96329-3.09315l-0.99232,2.94761
	C75.14024,29.96476,73.12724,36.41385,73.12724,36.41385z"/>
<path class="st1" d="M91.65972,24.53777h4.66946c2.74288,0,4.08479,0.49582,5.04733,1.28415
	c0.90486,0.7295,1.98435,2.0707,1.98435,4.20131c0,3.29746-2.12989,5.48575-5.31054,5.48575c-0.08714,0-0.17529,0-0.29216,0
	c0.93459,0.7586,1.60505,1.69255,2.01337,2.24677c0.40939,0.55458,0.93459,1.34184,1.63435,2.33492
	c0.72993,1.07942,2.97664,4.43507,2.97664,4.43507h-3.00602c-0.46643-1.05047-0.67038-1.42977-1.54585-2.77233
	c-1.25478-1.89721-2.48046-3.64774-3.56067-4.96027c-0.78726-0.99199-1.22497-1.25442-2.21732-1.28415v9.01675h-2.39296V24.53777
	 M94.08241,26.55143v7.46946h2.1299c1.77962,0,2.88842-0.29216,3.61835-1.02102c0.67038-0.61306,1.02101-1.69219,1.02101-3.00609
	c0-1.31246-0.81699-2.59662-1.95561-3.03396c-0.64172-0.26249-1.42898-0.40839-2.50919-0.40839H94.08241z"/>
<rect x="111.50584" y="24.50802" class="st1" width="2.33491" height="20.01772"/>
<path class="st1" d="M123.43446,24.50802h3.50118l3.64701,13.07245c0.3793,1.40132,0.52556,1.9549,0.78906,3.50148
	c0.31982-1.69212,0.46643-2.24677,0.72885-3.26779l3.76462-13.30614h3.53021l1.72185,20.01772h-2.39331l-1.16734-14.67786
	c-0.08707-1.28308-0.14555-3.41398-0.14555-3.41398c-0.20393,0.993-0.5535,2.36429-0.78726,3.15156l-4.28952,14.94028h-2.04268
	l-3.96863-14.21035c-0.40833-1.51719-0.7002-2.50918-0.99236-3.91022c0,0-0.14555,2.65544-0.23268,3.88049l-1.10916,14.24008
	h-2.30518L123.43446,24.50802z"/>
<polygon class="st1" points="148.53014,24.65357 159.47205,24.65357 159.15115,26.63785 150.95148,26.63785 150.95148,33.11603 
	157.80859,33.11603 157.80859,35.18817 150.95148,35.18817 150.95148,42.45361 159.76421,42.45361 159.76421,44.52574 
	148.53014,44.52574 "/>
<path class="st1" d="M166.21176,24.53777h4.66983c2.74117,0,4.08551,0.49582,5.04704,1.28415
	c0.90414,0.7295,1.98428,2.0707,1.98428,4.20131c0,3.29746-2.12982,5.48575-5.31119,5.48575c-0.08643,0-0.17427,0-0.29108,0
	c0.93459,0.7586,1.60497,1.69255,2.01294,2.24677c0.40974,0.55458,0.93459,1.34184,1.6355,2.33492
	c0.72815,1.07942,2.97485,4.43507,2.97485,4.43507h-3.00531c-0.46715-1.05047-0.67046-1.42977-1.54729-2.77233
	c-1.25299-1.89721-2.4791-3.64774-3.55923-4.96027c-0.78726-0.99199-1.22568-1.25442-2.21768-1.28415v9.01675h-2.39267V24.53777
	 M168.63489,26.55143v7.46946h2.12982c1.77927,0,2.88849-0.29216,3.61664-1.02102c0.67218-0.61306,1.02245-1.69219,1.02245-3.00609
	c0-1.31246-0.81772-2.59662-1.95561-3.03396c-0.64172-0.26249-1.42905-0.40839-2.50919-0.40839H168.63489z"/>
<path class="st1" d="M209.08192,26.39292l-1.04974,1.72121c-1.92696-1.25442-3.15091-1.69212-4.87277-1.69212
	c-2.5092,0-3.99765,1.25442-3.99765,3.29645c0,1.60499,0.9619,2.53958,3.32547,3.26843l2.30589,0.72994
	c1.77962,0.55458,2.74287,1.07942,3.53021,2.01294c0.81772,0.93395,1.31389,2.27651,1.31389,3.53129
	c0,1.8674-1.02245,3.61799-2.77161,4.81429c-1.31389,0.84574-2.65645,1.22504-4.49527,1.22504
	c-2.39224,0-4.43434-0.5826-6.41862-1.80828l1.04968-1.86783c1.66417,1.19637,3.356,1.72222,5.36894,1.72222
	c1.51865,0,2.33492-0.23368,3.18138-0.87612c0.9619-0.72922,1.42897-1.69247,1.42897-2.85911
	c0-1.78026-1.16655-3.00602-3.58789-3.73487l-2.01302-0.61298c-1.81007-0.55465-2.77333-0.96333-3.56059-1.78033
	c-0.81779-0.87512-1.25443-1.98435-1.25443-3.26844c0-3.41333,2.59698-5.74825,6.47603-5.74825
	C205.2011,24.4664,207.18544,25.10812,209.08192,26.39292z"/>
<path class="st1" d="M222.62029,45.30039c-2.48047,0-4.29018-1.16656-5.45674-2.53822
	c-1.57631-1.80899-2.3923-4.52213-2.3923-7.93726c0-6.36124,3.00493-10.27038,7.93726-10.27038
	c3.15083,0,5.19287,1.54586,6.30174,3.26778c1.22575,1.92588,1.83875,4.20196,1.83875,7.41135
	c0,3.85204-0.87547,6.27409-2.94762,8.14156c-0.43698,0.40796-0.78761,0.6711-1.28343,0.96254
	c0.81599,0.26249,1.89613,0.96262,2.68347,1.3713c0.5553,0.2918,1.48846,0.81672,2.68547,0.81672
	c0.52484,0,1.04976-0.08679,1.19702-0.14561l-0.78906,1.8965c-0.35056,0.17564-0.8754,0.26313-1.72041,0.26313
	c-1.25443,0-2.83253-0.90485-3.82309-1.51784C225.80022,46.38017,224.66232,45.56353,222.62029,45.30039 M222.7085,26.48041
	c-1.83881,0-3.532,0.90414-4.26151,2.33384c-0.72815,1.31389-1.04976,3.03511-1.04976,5.51521
	c0,3.00537,0.52492,5.63244,1.31354,6.97328c0.75861,1.31388,2.53822,2.15963,4.26015,2.15963
	c1.63371,0,2.80028-0.55465,3.70442-1.72121c0.99371-1.28487,1.48845-2.94762,1.48845-6.15693
	c0-2.94689-0.3219-4.96091-0.99228-6.36194C226.52979,27.88145,225.24635,26.48041,222.7085,26.48041z"/>
<path class="st1" d="M237.94666,24.90482h2.36186v12.80931c0,1.37158,0.08958,2.50912,0.20509,3.06377
	c0.34991,1.5756,1.80971,2.45179,4.05606,2.45179c1.66273,0,2.91751-0.43878,3.53056-1.25549
	c0.61305-0.817,0.75859-1.54657,0.75859-3.41433V24.90482h2.36322v13.91847c0,2.85875-0.29108,3.822-1.51646,4.90222
	c-1.22604,1.05004-2.83139,1.54586-5.25208,1.54586c-3.09387,0-4.98964-0.992-5.92461-2.88849
	c-0.43661-0.87512-0.58224-1.28344-0.58224-3.50111V24.90482z"/>
<path class="st1" d="M266.44653,24.90482l6.62372,20.01628h-2.71457l-1.89648-6.15622h-7.46976l-1.92517,6.15622h-2.42276
	l6.6825-20.01628H266.44653 M261.65982,36.80926h6.18701c0,0-1.57666-4.98964-2.1015-6.7115l-0.96292-3.09251l-0.99091,2.94689
	C263.67319,30.3609,261.65982,36.80926,261.65982,36.80926z"/>
<path class="st1" d="M279.92297,24.93384h4.6684c2.74258,0,4.08551,0.49582,5.0484,1.28308
	c0.90424,0.72993,1.98474,2.07249,1.98474,4.20238c0,3.29754-2.13162,5.48583-5.31155,5.48583c-0.08752,0-0.17429,0-0.29254,0
	c0.93423,0.7586,1.60672,1.69212,2.01474,2.2467c0.40796,0.55458,0.9328,1.34263,1.63406,2.33492
	c0.72916,1.07949,2.97629,4.43435,2.97629,4.43435h-3.00574c-0.46671-1.04969-0.67181-1.42898-1.54584-2.77161
	c-1.25613-1.89642-2.48154-3.64701-3.55997-4.96091c-0.78934-0.99236-1.22604-1.25478-2.21838-1.28344v9.01596h-2.39261V24.93384
	 M282.34433,26.94685v7.47011h2.13016c1.78107,0,2.89023-0.29145,3.61945-1.02102c0.67108-0.61306,1.02103-1.6932,1.02103-3.00531
	c0-1.31389-0.81738-2.5974-1.95526-3.0351c-0.64172-0.26314-1.43042-0.40868-2.50955-0.40868H282.34433z"/>
<polygon class="st1" points="300.22113,25.05036 311.16269,25.05036 310.84079,27.03471 302.64255,27.03471 302.64255,33.51282 
	309.49994,33.51282 309.49994,35.58423 302.64255,35.58423 302.64255,42.85039 311.4552,42.85039 311.4552,44.92109 
	300.22113,44.92109 "/>
</svg>
